<svg viewBox="0 0 575.6 132.3" version="1.1" xmlns="http://www.w3.org/2000/svg" id="Layer_1">
  
  <defs>
    <style>
      .st0 {
        fill: #fff;
      }
    </style>
  </defs>
  <g>
    <path d="M280.1,71.2c3.6,0,6.8-.9,9.7-2.6s5-4.1,6.6-7.2c1.6-3.1,2.4-6.6,2.4-10.6s-.8-7.4-2.4-10.5-3.8-5.5-6.6-7.2c-2.8-1.7-6.1-2.6-9.7-2.6s-7,.9-9.8,2.6c-2.8,1.7-5,4.1-6.6,7.2-1.6,3.1-2.4,6.6-2.4,10.5s.8,7.6,2.4,10.7c1.6,3.1,3.8,5.5,6.6,7.2s6.1,2.5,9.8,2.5M279.8,96.1c-8.7,0-16.5-2-23.4-6.1-6.9-4-12.2-9.5-16.1-16.4-3.9-6.9-5.8-14.5-5.8-22.8s1.9-15.8,5.8-22.8c3.9-6.9,9.2-12.4,16.1-16.5,6.9-4.1,14.8-6.1,23.5-6.1s16.7,2,23.7,6.1,12.4,9.6,16.2,16.5c3.9,6.9,5.9,14.5,5.9,22.8s-1.9,15.9-5.8,22.8c-3.9,6.9-9.3,12.4-16.2,16.4s-14.9,6-23.8,6" class="st0"></path>
    <path d="M438.5,96.2c-8.2,0-15.2-1.4-20.9-4.3-5.7-2.9-9.9-6.7-12.6-11.3-2.7-4.6-4.1-9.6-4.1-15h24.6c.1,2.2.7,4,1.6,5.6,1,1.6,2.4,2.8,4.3,3.7,1.9.9,4.3,1.3,7.2,1.3s4.6-.3,6.2-.9c1.6-.6,2.8-1.5,3.5-2.6.7-1.1,1.1-2.4,1.1-4s-.5-2.9-1.6-3.8c-1-1-2.6-1.8-4.7-2.4-2.1-.6-4.9-1.1-8.4-1.6-6.1-.8-11.4-2.2-15.9-4.3s-8.2-5-10.9-8.8-4.1-8.6-4.1-14.3,1.3-10.8,4-14.9c2.6-4.1,6.5-7.3,11.5-9.5,5-2.2,11.1-3.3,18.1-3.3s13.2,1.2,18.6,3.6c5.4,2.4,9.7,5.8,12.7,10.2,3,4.4,4.5,9.5,4.5,15.2l-25.1-.2c-.1-1.6-.6-3-1.4-4.2s-2-2.2-3.5-2.9c-1.5-.7-3.4-1-5.7-1s-3.7.3-5,.8-2.2,1.3-2.8,2.2c-.6.9-.9,2-.9,3.2s.3,2.9,1,3.7,2,1.6,4.1,2.1c2,.6,5.4,1.2,10.1,2,.5,0,1.1.1,1.7.2s1.2.2,1.8.3c6.2,1.2,11.4,2.7,15.4,4.6,4,1.9,7.1,4.6,9.3,8.1,2.2,3.5,3.2,7.9,3.2,13.3s-1.6,11.8-4.9,16.2-7.7,7.6-13.3,9.8-12,3.2-19.1,3.2" class="st0"></path>
    <path d="M530.3,72.6c3.7,0,7.1-.9,10.2-2.9,3.1-1.9,5.5-4.5,7.2-7.9,1.8-3.3,2.6-7,2.6-11.1s-.9-7.5-2.7-10.9c-1.8-3.3-4.2-5.9-7.3-7.8-3.1-1.9-6.5-2.9-10.1-2.9s-7,.9-10.1,2.6-5.5,4.2-7.3,7.5c-1.8,3.3-2.7,7.1-2.7,11.5s.9,8.5,2.8,11.8c1.8,3.3,4.3,5.8,7.3,7.5,3,1.7,6.4,2.5,10,2.5M523.9,96.2c-7.4,0-14-2-20-6.1-6-4-10.6-9.5-14-16.4-3.4-6.9-5-14.5-5-22.7s1.7-15.8,5.1-22.7c3.4-6.9,8-12.4,14-16.5,5.9-4.1,12.5-6.1,19.9-6.1s8,.5,11.6,1.6c3.5,1.1,6.7,2.6,9.4,4.6,2.7,2,4.9,4.4,6.6,7.2v-10.7h24.2v85h-24.3v-10.5c-1.7,2.8-3.9,5.2-6.6,7.2-2.7,2-5.9,3.5-9.4,4.6s-7.3,1.6-11.4,1.6" class="st0"></path>
    <polygon points="363.7 8.4 338.1 38.7 338.1 93.4 363.7 93.4 363.7 34.5 392.8 34.5 392.8 8.4 363.7 8.4" class="st0"></polygon>
  </g>
  <g>
    <polygon points="302 111.2 302 131.6 316.5 131.6 316.5 127.5 306.6 127.5 306.6 123.2 315 123.2 315 119.3 306.6 119.3 306.6 115.3 316.3 115.3 316.3 111.2 302 111.2" class="st0"></polygon>
    <path d="M341.3,127.5c1.3,0,2.5-.2,3.4-.7,1-.5,1.7-1.2,2.2-2.1.5-.9.8-2,.8-3.2s-.2-2.3-.7-3.2c-.5-.9-1.2-1.6-2.2-2.2s-2.1-.8-3.5-.8h-3.5v12.2h3.6ZM333.1,111.2h8.2c2.2,0,4.1.4,5.7,1.3s2.9,2.1,3.9,3.6c.9,1.5,1.4,3.3,1.4,5.3s-.5,3.8-1.4,5.3c-.9,1.6-2.2,2.8-3.8,3.6s-3.5,1.3-5.7,1.3h-8.3v-20.4h0Z" class="st0"></path>
    <rect height="20.4" width="4.6" y="111.2" x="367.3" class="st0"></rect>
    <polygon points="387.2 111.2 387.2 115.3 392.9 115.3 392.9 131.6 397.5 131.6 397.5 115.3 403.3 115.3 403.3 111.2 387.2 111.2" class="st0"></polygon>
    <path d="M441.8,132.1c-1.7,0-3.2-.3-4.6-1s-2.4-1.6-3.2-2.9c-.8-1.3-1.2-2.7-1.2-4.4v-12.5h4.6v12.2c0,.9.2,1.6.5,2.3s.8,1.2,1.5,1.6c.6.4,1.4.6,2.3.6s1.7-.2,2.3-.6c.6-.4,1.1-.9,1.5-1.6s.5-1.4.5-2.3v-12.2h4.6v12.5c0,1.6-.4,3-1.1,4.3-.7,1.3-1.8,2.3-3.1,3-1.4.7-2.9,1.1-4.7,1.1" class="st0"></path>
    <polygon points="481.9 111.2 481.9 124 472 111.2 468 111.2 468 131.6 472.6 131.6 472.6 118.7 482.5 131.6 486.5 131.6 486.5 111.2 481.9 111.2" class="st0"></polygon>
    <rect height="20.4" width="4.6" y="111.2" x="504.7" class="st0"></rect>
    <path d="M534.6,127.8c1.2,0,2.3-.3,3.3-.8,1-.6,1.8-1.3,2.3-2.3.6-1,.9-2.1.9-3.3s-.3-2.3-.9-3.3c-.6-1-1.4-1.8-2.3-2.3s-2.1-.8-3.3-.8-2.3.3-3.3.8c-1,.6-1.8,1.3-2.3,2.3-.6,1-.9,2.1-.9,3.3s.3,2.3.9,3.3,1.4,1.8,2.3,2.3c1,.6,2.1.8,3.2.8M534.6,132.1c-2,0-3.9-.5-5.6-1.4-1.7-1-3-2.3-4-3.9-1-1.6-1.5-3.4-1.5-5.4s.5-3.8,1.5-5.4,2.3-2.9,4-3.9c1.7-.9,3.5-1.4,5.6-1.4s3.8.5,5.5,1.4,3,2.2,4,3.9c1,1.6,1.5,3.4,1.5,5.4s-.5,3.7-1.5,5.4c-1,1.6-2.3,2.9-4,3.9s-3.5,1.4-5.5,1.4" class="st0"></path>
    <polygon points="571 111.2 571 124 561.1 111.2 557 111.2 557 131.6 561.7 131.6 561.7 118.7 571.6 131.6 575.6 131.6 575.6 111.2 571 111.2" class="st0"></polygon>
    <path d="M246.2,132.3c-2,0-3.8-.5-5.5-1.4-1.7-1-3-2.3-4-3.9-1-1.6-1.5-3.4-1.5-5.4s.5-3.8,1.5-5.4c1-1.6,2.3-2.9,4-3.9,1.7-.9,3.5-1.4,5.5-1.4s2.9.3,4.3.9,2.6,1.4,3.6,2.6l-2.9,3.1c-.6-.7-1.4-1.3-2.2-1.7s-1.8-.6-2.8-.6-2.2.3-3.1.8-1.7,1.3-2.2,2.2c-.6,1-.8,2.1-.8,3.4s.3,2.5.8,3.4c.6,1,1.3,1.7,2.2,2.2.9.5,2,.8,3.1.8s2-.2,2.9-.6c.9-.4,1.6-.9,2.2-1.7l2.9,3.1c-.7.8-1.4,1.4-2.3,1.9-.9.5-1.8.9-2.7,1.1-.9.2-1.9.4-2.9.4" class="st0"></path>
    <path d="M278.3,121c.5,0,1-.1,1.5-.3.4-.2.8-.6,1-1s.4-.9.4-1.5-.1-.9-.4-1.3c-.2-.4-.6-.8-1-1s-.9-.4-1.5-.4h-4.1v5.5h4.1ZM269.5,111.4h9c1.4,0,2.7.3,3.8.9s2,1.4,2.6,2.4c.6,1,.9,2.2.9,3.6s-.2,1.8-.5,2.6-.8,1.5-1.4,2.1-1.3,1-2.1,1.4l4.4,7.6h-5.3l-3.6-6.9c-.1,0-.3,0-.4,0h-2.7v6.9h-4.6v-20.4h0Z" class="st0"></path>
  </g>
  <path d="M18,115.6l9.1,10.7H8.9l9.1-10.7ZM79.6,107.3l16.1,19h-16.1v-19ZM153.8,107.3l16.1,19h-16.1v-19ZM5.5,48.7l30.9,36.6L5.5,121.9V48.7ZM79.6,48.7l37.7,44.7h-37.7v-44.7ZM196.9,24l10.4,12.3-6.4,7.6h-20.8l16.8-19.9h0ZM202.3,22h6.4v7.5s-6.4-7.5-6.4-7.5ZM7.5,42.6L31.8,13.7h42.3v107.8L7.5,42.6ZM79.6,40.2V13.7h41.2v75.3l-41.2-48.8h0ZM126.3,95.5V13.7h22v107.8l-22-26h0ZM153.8,25.8l10.5-12h23.9l5.1,6-39.5,46.8V25.8ZM153.8,5.5h10.4l-10.4,11.9V5.5ZM148.3,0v8.2H29.3L0,42.9v88.9h38.9l-17.3-20.5,18.4-21.8,35.7,42.3h31.9l-27.8-32.9h42.2l27.8,32.9h31.9l-27.9-33v-23.6l21.7-25.7h28l10.7-12.7v-20.2h-16.5l-7-8.2h-21.6L176.3,0h-28Z" class="st0"></path>
</svg>